<?xml version="1.0" encoding="UTF-8"?>
<svg xmlns:xlink="http://www.w3.org/1999/xlink" width="78px" height="108px" viewBox="0 0 78 108" version="1.1"
     xmlns="http://www.w3.org/2000/svg">
    <!-- Generator: Sketch 58 (84663) - https://sketch.com -->
    <title>cup</title>
    <desc>Created with Sketch.</desc>
    <defs>
        <linearGradient x1="12.789812%" y1="41.6968435%" x2="83.6401091%" y2="41.6968435%" id="linearGradient-1">
            <stop stop-color="#FCB49A" stop-opacity="0.641134511" offset="0%"></stop>
            <stop stop-color="#F48A65" stop-opacity="0.783514493" offset="100%"></stop>
        </linearGradient>
        <linearGradient x1="12.789812%" y1="41.6968435%" x2="83.6401091%" y2="41.6968435%" id="linearGradient-2">
            <stop stop-color="#FCB49A" stop-opacity="0.641134511" offset="0%"></stop>
            <stop stop-color="#F48A65" stop-opacity="0.783514493" offset="100%"></stop>
        </linearGradient>
        <linearGradient x1="12.789812%" y1="41.6968435%" x2="83.6401091%" y2="41.6968435%" id="linearGradient-3">
            <stop stop-color="#FCB49A" stop-opacity="0.641134511" offset="0%"></stop>
            <stop stop-color="#F48A65" stop-opacity="0.783514493" offset="100%"></stop>
        </linearGradient>
        <linearGradient x1="12.789812%" y1="41.6968435%" x2="83.6401091%" y2="41.6968435%" id="linearGradient-4">
            <stop stop-color="#FCB49A" stop-opacity="0.641134511" offset="0%"></stop>
            <stop stop-color="#F48A65" stop-opacity="0.783514493" offset="100%"></stop>
        </linearGradient>
        <linearGradient x1="0%" y1="41.6968435%" x2="100%" y2="41.6968425%" id="linearGradient-5">
            <stop stop-color="#FCB49A" stop-opacity="0.641134511" offset="0%"></stop>
            <stop stop-color="#F48A65" stop-opacity="0.742017663" offset="100%"></stop>
        </linearGradient>
        <linearGradient x1="0%" y1="41.6968435%" x2="100%" y2="41.6968425%" id="linearGradient-6">
            <stop stop-color="#FCB49A" stop-opacity="0.641134511" offset="0%"></stop>
            <stop stop-color="#F48A65" stop-opacity="0.742017663" offset="100%"></stop>
        </linearGradient>
        <linearGradient x1="50%" y1="0%" x2="50%" y2="65.1766962%" id="linearGradient-7">
            <stop stop-color="#F48A65" stop-opacity="0.290336277" offset="0%"></stop>
            <stop stop-color="#F48A65" stop-opacity="0" offset="100%"></stop>
        </linearGradient>
        <linearGradient x1="0%" y1="41.6968435%" x2="100%" y2="41.6968425%" id="linearGradient-8">
            <stop stop-color="#FDCFBE" offset="0%"></stop>
            <stop stop-color="#F7A88D" offset="100%"></stop>
        </linearGradient>
        <linearGradient x1="0%" y1="41.6968435%" x2="100%" y2="41.6968425%" id="linearGradient-9">
            <stop stop-color="#FDCFBE" offset="0%"></stop>
            <stop stop-color="#F7A88D" offset="100%"></stop>
        </linearGradient>
        <linearGradient x1="0%" y1="49.6284185%" x2="100%" y2="50.3715815%" id="linearGradient-10">
            <stop stop-color="#F3A3B1" stop-opacity="0.47412817" offset="0%"></stop>
            <stop stop-color="#EA8395" stop-opacity="0.61571558" offset="100%"></stop>
        </linearGradient>
        <linearGradient x1="0%" y1="49.6431997%" x2="100%" y2="50.3568003%" id="linearGradient-11">
            <stop stop-color="#F3A3B1" stop-opacity="0.47412817" offset="0%"></stop>
            <stop stop-color="#EA8395" stop-opacity="0.61571558" offset="100%"></stop>
        </linearGradient>
        <linearGradient x1="0%" y1="41.6968435%" x2="100%" y2="41.6968425%" id="linearGradient-12">
            <stop stop-color="#FCB49A" stop-opacity="0.641134511" offset="0%"></stop>
            <stop stop-color="#F48A65" stop-opacity="0.742017663" offset="100%"></stop>
        </linearGradient>
        <linearGradient x1="0%" y1="41.6968435%" x2="100%" y2="41.6968425%" id="linearGradient-13">
            <stop stop-color="#FCB49A" stop-opacity="0.641134511" offset="0%"></stop>
            <stop stop-color="#F48A65" stop-opacity="0.742017663" offset="100%"></stop>
        </linearGradient>
        <linearGradient x1="0%" y1="41.6968435%" x2="100%" y2="41.6968425%" id="linearGradient-14">
            <stop stop-color="#FCB49A" stop-opacity="0.641134511" offset="0%"></stop>
            <stop stop-color="#F48A65" stop-opacity="0.742017663" offset="100%"></stop>
        </linearGradient>
        <linearGradient x1="0%" y1="41.6968435%" x2="100%" y2="41.6968425%" id="linearGradient-15">
            <stop stop-color="#FCB49A" stop-opacity="0.641134511" offset="0%"></stop>
            <stop stop-color="#F48A65" stop-opacity="0.742017663" offset="100%"></stop>
        </linearGradient>
        <linearGradient x1="100%" y1="50.0987654%" x2="0%" y2="49.9012346%" id="linearGradient-16">
            <stop stop-color="#EF9293" offset="0%"></stop>
            <stop stop-color="#FCC7B5" offset="100%"></stop>
        </linearGradient>
        <path d="M27.9616725,92.116725 L27.9616725,91.0060976 C27.9616725,90.7535283 28.1664203,90.5487805 28.4189896,90.5487805 L51.8074912,90.5487805 C52.0600605,90.5487805 52.2648083,90.7535283 52.2648083,91.0060976 L52.2648083,92.116725 C52.2648083,92.9826768 52.9668009,93.6846686 53.8327527,93.6846686 L54.9433798,93.6846686 C55.195949,93.6846686 55.4006969,93.8894168 55.4006969,94.1419857 L55.4006969,99.4991287 C55.4006969,99.7516985 55.195949,99.9564457 54.9433798,99.9564457 L53.8327527,99.9564457 C52.9668009,99.9564457 52.2648083,100.658438 52.2648083,101.52439 L52.2648083,102.635018 C52.2648083,102.887587 52.0600605,103.092335 51.8074912,103.092335 L28.4189896,103.092335 C28.1664203,103.092335 27.9616725,102.887587 27.9616725,102.635018 L27.9616725,101.52439 C27.9616725,100.658918 27.2600682,99.9573128 26.3945954,99.9573128 C26.3943064,99.9573128 26.3940175,99.9573137 26.3937284,99.9573137 L25.2831011,99.9581808 C25.0305319,99.9583207 24.825531,99.753686 24.825531,99.5011171 C24.825531,99.5010329 24.825531,99.5009479 24.825531,99.5008637 L24.825531,94.1419857 C24.825531,93.8894168 25.0305318,93.6846686 25.283101,93.6846686 L26.3937283,93.6846686 C27.2596799,93.6846686 27.9616725,92.9826768 27.9616725,92.116725 Z"
              id="path-17"></path>
    </defs>
    <g id="Page-1" stroke="none" stroke-width="1" fill="none" fill-rule="evenodd">
        <g id="cup" transform="translate(-1.000000, -1.000000)">
            <g id="Group-21" transform="translate(0.391986, 0.130662)">
                <g id="Rectangle-10" transform="translate(33.841463, 63.109756)">
                    <g id="path-2-link" fill="#FFFFFF">
                        <path d="M2.64111494,0.0394859451 C3.71336753,0.200553476 4.79292622,0.281087287 5.87979091,0.281087287 C6.9666557,0.281087287 8.04621439,0.200553476 9.11846689,0.0394859451 C8.45180022,2.84649008 8.11846689,5.65349421 8.11846689,8.46049834 C8.11846689,11.2675025 8.45180022,14.0745066 9.11846689,16.8815107 L2.64111494,16.8815107 C3.30778161,14.0745066 3.64111494,11.2675025 3.64111494,8.46049834 C3.64111494,5.65349421 3.30778161,2.84649008 2.64111494,0.0394859451 Z"
                              id="path-2-copy-2"></path>
                    </g>
                    <g id="path-2-link" fill="url(#linearGradient-2)">
                        <path d="M2.64111494,0.0394859451 C3.71336753,0.200553476 4.79292622,0.281087287 5.87979091,0.281087287 C6.9666557,0.281087287 8.04621439,0.200553476 9.11846689,0.0394859451 C8.45180022,2.84649008 8.11846689,5.65349421 8.11846689,8.46049834 C8.11846689,11.2675025 8.45180022,14.0745066 9.11846689,16.8815107 L2.64111494,16.8815107 C3.30778161,14.0745066 3.64111494,11.2675025 3.64111494,8.46049834 C3.64111494,5.65349421 3.30778161,2.84649008 2.64111494,0.0394859451 Z"
                              id="path-2-copy"></path>
                    </g>
                </g>
                <g id="Rectangle-11-Copy" transform="translate(25.609756, 80.487805)">
                    <g id="path-3-link" fill="#FFFFFF">
                        <path d="M3.13588848,0 L25.087108,0 C26.6025235,0 27.8310104,1.22848701 27.8310104,2.74390244 L27.8310104,4.70383271 L0.391986037,4.70383271 L0.391986037,2.74390244 C0.391986037,1.22848701 1.62047305,0 3.13588848,0 Z"
                              id="path-3"></path>
                    </g>
                    <g id="path-3-link" fill="url(#linearGradient-4)">
                        <path d="M3.13588848,0 L25.087108,0 C26.6025235,0 27.8310104,1.22848701 27.8310104,2.74390244 L27.8310104,4.70383271 L0.391986037,4.70383271 L0.391986037,2.74390244 C0.391986037,1.22848701 1.62047305,0 3.13588848,0 Z"
                              id="path-3"></path>
                    </g>
                </g>
                <g id="Group-25" transform="translate(0.431179, 0.783972)">
                    <g id="Rectangle-4" transform="translate(13.719512, 5.487805)">
                        <g id="path-5-link" fill="#FFFFFF">
                            <path d="M0,0 L50.9581881,0 L50.9581881,30.966899 C50.9581881,45.038614 39.5508091,56.445993 25.4790941,56.445993 L25.4790941,56.445993 C11.407379,56.445993 0,45.038614 0,30.966899 L0,0 Z"
                                  id="path-5"></path>
                        </g>
                        <g id="path-5-link" fill="url(#linearGradient-6)">
                            <path d="M0,0 L50.9581881,0 L50.9581881,30.966899 C50.9581881,45.038614 39.5508091,56.445993 25.4790941,56.445993 L25.4790941,56.445993 C11.407379,56.445993 0,45.038614 0,30.966899 L0,0 Z"
                                  id="path-5"></path>
                        </g>
                    </g>
                    <path d="M13.7195122,5.48780488 L64.6777003,5.48780488 L64.6777003,36.4547039 C64.6777003,50.5264189 53.2703213,61.9337979 39.1986063,61.9337979 L39.1986063,61.9337979 C25.1268912,61.9337979 13.7195122,50.5264189 13.7195122,36.4547039 L13.7195122,5.48780488 Z"
                          id="Rectangle-4-Copy-2" fill="url(#linearGradient-7)"></path>
                    <g id="Rectangle-6" transform="translate(10.060976, 0.000000)">
                        <g id="path-9-link" fill="#FFFFFF">
                            <rect id="path-9" x="0.52264811" y="0.130662021" width="57.2299652" height="4.83449478"
                                  rx="2.41724739"></rect>
                        </g>
                        <g id="path-9-link" fill="url(#linearGradient-9)">
                            <rect id="path-9" x="0.52264811" y="0.130662021" width="57.2299652" height="4.83449478"
                                  rx="2.41724739"></rect>
                        </g>
                        <g id="path-9-link" fill="url(#linearGradient-11)">
                            <rect id="path-9" x="0.52264811" y="0.130662021" width="57.2299652" height="4.83449478"
                                  rx="2.41724739"></rect>
                        </g>
                    </g>
                    <g id="Rectangle-9" transform="translate(0.000000, 13.719512)">
                        <g id="path-10-link" fill="#FFFFFF">
                            <path d="M6.08883901,0.391986037 L13.3813866,0.391986037 L13.3813866,7.44773515 L8.82375852,7.44773515 C7.81348153,7.44773515 6.99449022,8.26672646 6.99449022,9.27700345 L6.99449022,18.4346448 C6.99449022,21.7436557 9.6769736,24.426139 12.9859845,24.426139 C13.0132419,25.3079268 13.1450426,26.3217383 13.3813866,27.4675738 C13.6177307,28.6134091 13.9171429,29.6901899 14.2796233,30.6979161 L14.2796233,30.6979161 C6.87224174,30.8435787 0.749289709,24.9567924 0.603627095,17.5494109 C0.601898494,17.4615064 0.601034131,17.3735869 0.601034131,17.2856654 L0.601034131,5.87979091 C0.601034131,2.84895997 3.05800806,0.391986037 6.08883901,0.391986037 Z"
                                  id="path-10"></path>
                        </g>
                        <g id="path-10-link" fill="url(#linearGradient-13)">
                            <path d="M6.08883901,0.391986037 L13.3813866,0.391986037 L13.3813866,7.44773515 L8.82375852,7.44773515 C7.81348153,7.44773515 6.99449022,8.26672646 6.99449022,9.27700345 L6.99449022,18.4346448 C6.99449022,21.7436557 9.6769736,24.426139 12.9859845,24.426139 C13.0132419,25.3079268 13.1450426,26.3217383 13.3813866,27.4675738 C13.6177307,28.6134091 13.9171429,29.6901899 14.2796233,30.6979161 L14.2796233,30.6979161 C6.87224174,30.8435787 0.749289709,24.9567924 0.603627095,17.5494109 C0.601898494,17.4615064 0.601034131,17.3735869 0.601034131,17.2856654 L0.601034131,5.87979091 C0.601034131,2.84895997 3.05800806,0.391986037 6.08883901,0.391986037 Z"
                                  id="path-10"></path>
                        </g>
                    </g>
                    <path d="M69.6036645,14.1114982 L76.8962121,14.1114982 L76.8962121,21.1672473 L72.338584,21.1672473 C71.328307,21.1672473 70.5093157,21.9862387 70.5093157,22.9965156 L70.5093157,32.154157 C70.5093157,35.4631679 73.191799,38.1456512 76.5008099,38.1456512 C76.5280674,39.027439 76.6598681,40.0412505 76.8962121,41.187086 C77.1325561,42.3329213 77.4319683,43.4097021 77.7944487,44.4174283 C70.3870672,44.5630909 64.2641152,38.6763046 64.1184526,31.2689231 C64.1167239,31.1810186 64.1158596,31.0930991 64.1158596,31.0051776 L64.1158596,19.5993031 C64.1158596,16.5684722 66.5728335,14.1114982 69.6036645,14.1114982 Z"
                          id="Rectangle-9-Copy-5" fill="#FCB49A"
                          transform="translate(70.955154, 29.265786) scale(-1, 1) translate(-70.955154, -29.265786) "></path>
                </g>
            </g>
            <g id="Rectangle-12" transform="translate(17.207317, 85.060976)">
                <g id="path-11-link" transform="translate(2.000000, 0.000000)" fill="#FFFFFF">
                    <path d="M2.87456442,0.653310091 L38.9372823,0.653310091 C40.4526977,0.653310091 41.6811847,1.8817971 41.6811847,3.39721253 L41.6811847,21.0365854 L0.130661982,21.0365854 L0.130661982,3.39721253 C0.130661982,1.8817971 1.35914899,0.653310091 2.87456442,0.653310091 Z"
                          id="path-11"></path>
                </g>
                <g id="path-11-link">
                    <path d="M4.87456442,0.653310091 L40.9372823,0.653310091 C42.4526977,0.653310091 43.6811847,1.8817971 43.6811847,3.39721253 L43.6811847,21.0365854 L2.13066198,21.0365854 L2.13066198,3.39721253 C2.13066198,1.8817971 3.35914899,0.653310091 4.87456442,0.653310091 Z"
                          id="path-11" fill="url(#linearGradient-15)"></path>
                    <rect id="Rectangle" fill="url(#linearGradient-16)" x="0.792682927" y="21" width="45" height="2"
                          rx="1"></rect>
                </g>
            </g>
            <g id="Rectangle-12-Copy">
                <use fill="#EA8395" xlink:href="#path-17"></use>
                <use fill="#DE6A7E" xlink:href="#path-17"></use>
            </g>
        </g>
    </g>
</svg>