<?xml version="1.0" encoding="UTF-8"?>
<svg width="707px" height="951px" viewBox="0 0 707 951" version="1.1" xmlns="http://www.w3.org/2000/svg"
>
    <!-- Generator: Sketch 58 (84663) - https://sketch.com -->
    <title>Group</title>
    <desc>Created with Sketch.</desc>
    <g id="Page-1" stroke="none" stroke-width="1" fill="none" fill-rule="evenodd">
        <g id="Group">
            <path d="M291.464284,342.129199 L193.666428,348.401661 L306.458064,548.65471 L221.827311,782.283267 L330.398209,851.451624 L329.339848,816.850758 C329.339848,816.850758 403.008641,736.987935 459.031816,556.998587 C515.05499,377.009239 291.464284,342.129199 291.464284,342.129199 Z"
                  id="Path" fill="#E2E2E2" fill-rule="nonzero"></path>
            <path d="M374.003835,524.815061 L307.252818,512.895237 L290.409081,520.161204 L306.458064,548.65471 L289.021244,596.79031 L289.021244,596.79031 C289.021244,596.79031 360.374505,625.791338 400.418201,704.532899 C403.724236,697.912978 407.066451,690.985065 410.444847,683.74916 C399.663462,625.068437 374.003835,524.815061 374.003835,524.815061 Z"
                  id="Path" fill="#000000" fill-rule="nonzero"></path>
            <polygon id="Path" fill="#EDEEEF" fill-rule="nonzero"
                     points="685.428043 308.933239 374.202621 308.933239 395.549835 122.227071 706.775256 122.227071"></polygon>
            <polygon id="Path" stroke="#000000" stroke-width="1.5" stroke-linecap="round" stroke-linejoin="round"
                     points="673.069569 293.007162 361.844148 293.007162 383.191361 106.300993 694.416783 106.300993"></polygon>
            <polygon id="Path" fill="#000000" fill-rule="nonzero"
                     points="538.749837 363.791847 546.843397 293.007162 497.068595 293.007162 488.975034 363.791847"></polygon>
            <path d="M544.854551,777.515337 C544.854551,777.515337 523.033548,355.055641 233.360087,356.403524 L95.8688705,390.203114 C95.8688705,390.203114 61.6869743,577.674357 347.74849,566.946813 L451.445729,835.129475 L564.082539,795.796081 L544.854551,777.515337 Z"
                  id="Path" fill="#EDEEEF" fill-rule="nonzero"></path>
            <path d="M544.854551,777.515337 C544.854551,777.515337 523.033548,355.055641 233.360087,356.403524"
                  id="Path" stroke="#000000" stroke-width="1.5" stroke-linecap="round" stroke-linejoin="round"></path>
            <path d="M95.8688705,390.203114 C95.8688705,390.203114 61.6869743,577.674357 347.74849,566.946813 L451.445729,835.129475"
                  id="Path" stroke="#000000" stroke-width="1.5" stroke-linecap="round" stroke-linejoin="round"></path>
            <polygon id="Path" fill="#EDEEEF" fill-rule="nonzero"
                     points="225.281104 46.077273 225.281104 97.1179608 162.052396 112.659028 162.052396 26.5251851 225.281104 10.9841181"></polygon>
            <circle id="Oval" fill="#000000" fill-rule="nonzero" cx="189.563553" cy="62.0462497"
                    r="1.69060061"></circle>
            <circle id="Oval" fill="#000000" fill-rule="nonzero" cx="215.530008" cy="62.0462497"
                    r="1.69060061"></circle>
            <polyline id="Path" stroke="#000000" stroke-width="1.5" stroke-linecap="round" stroke-linejoin="round"
                      points="207.911536 72.131625 207.911536 46.077273 220.963744 46.077273"></polyline>
            <path d="M186.378671,46.077869 L199.430748,46.077869" id="Path" stroke="#000000" stroke-width="1.5"
                  stroke-linecap="round" stroke-linejoin="round"></path>
            <path d="M166.216527,59.4270829 L166.216527,68.4746229 C161.336088,68.4746229 157.379706,64.5182405 157.379706,59.6378015 C157.379706,59.3666574 157.391745,59.0985447 157.415823,58.8334637 C157.910924,53.3460891 166.216527,53.9174063 166.216527,59.4270829 Z"
                  id="Path" fill="#EDEEEF" fill-rule="nonzero"></path>
            <path d="M166.216527,68.4746229 C161.336088,68.4746229 157.379706,64.5182405 157.379706,59.6378015"
                  id="Path" stroke="#000000" stroke-width="1.5" stroke-linecap="round" stroke-linejoin="round"></path>
            <path d="M202.203442,78.5541217 C197.263836,78.5541217 193.259497,74.5497713 193.259497,69.610165" id="Path"
                  stroke="#FF6498" stroke-width="1.5" stroke-linecap="round" stroke-linejoin="round"></path>
            <path d="M225.280985,97.1181158 L162.052026,112.65873" id="Path" stroke="#000000" stroke-width="1.5"
                  stroke-linecap="round" stroke-linejoin="round"></path>
            <path d="M207.912072,72.1521629 L202.203442,73.5552454" id="Path" stroke="#000000" stroke-width="1.5"
                  stroke-linecap="round" stroke-linejoin="round"></path>
            <path d="M291.464248,204.058107 L291.464248,342.129008 L95.8687632,390.203114 L95.8687632,236.429835 C95.8687632,181.904466 133.092732,134.423659 186.042234,121.409585 L186.042425,121.409585 C211.435172,115.168476 238.287455,120.946453 258.865822,137.079458 C279.444189,153.212463 291.464248,177.909591 291.464248,204.058071 L291.464248,204.058107 Z"
                  id="Path" fill="#FF6498" fill-rule="nonzero"></path>
            <path d="M166.216527,54.9948273 C171.06654,49.040827 174.521523,42.076202 176.327816,34.6122853 C176.327816,34.6122853 213.839408,46.979103 229.222036,26.2684083 C236.194347,16.8811175 232.950474,7.72089934 229.67884,2.3096686 C229.185009,1.45152755 228.277594,0.914934864 227.287693,0.894639398 C226.297791,0.876428697 225.370199,1.37733141 224.843372,2.21562119 C223.320591,4.88050056 219.735847,7.06632219 211.3423,3.91873761 C197.19677,-1.38583454 167.758034,0.342790308 163.067011,18.2225268 C163.067011,18.2225268 142.207319,24.0334412 160.125497,55.2499116"
                  id="Path" stroke="#000000" stroke-width="1.5" stroke-linecap="round" stroke-linejoin="round"></path>
            <path d="M273.021431,363.791668 L698.91095,363.791668" id="Path" stroke="#000000" stroke-width="1.5"
                  stroke-linecap="round" stroke-linejoin="round"></path>
            <path d="M142.725652,142.064448 C142.725652,142.064448 62.101665,208.275496 41.8379636,315.290082 C21.5742622,422.304667 182.248548,396.589947 258.778767,365.089463"
                  id="Path" stroke="#000000" stroke-width="1.5" stroke-linecap="round" stroke-linejoin="round"></path>
            <path d="M127.064708,308.932798 C127.064708,308.932798 308.842029,276.801136 321.357844,356.406753"
                  id="Path" stroke="#000000" stroke-width="1.5" stroke-linecap="round" stroke-linejoin="round"></path>
            <path d="M264.663703,142.064448 C264.663703,142.064448 321.71079,200.930715 336.755242,308.932798 C336.755242,308.932798 394.618468,310.923075 396.932999,356.406753"
                  id="Path" stroke="#000000" stroke-width="1.5" stroke-linecap="round" stroke-linejoin="round"></path>
            <path d="M109.069706,176.949995 C109.069706,176.949995 83.1427296,123.116981 61.6870458,169.604296 C40.231362,216.091611 -53.5206311,522.431096 45.4139109,573.686341 C144.348453,624.941586 289.021244,596.79031 289.021244,596.79031"
                  id="Path" stroke="#000000" stroke-width="1.5" stroke-linecap="round" stroke-linejoin="round"></path>
            <polyline id="Path" stroke="#000000" stroke-width="1.5" stroke-linecap="round" stroke-linejoin="round"
                      points="179.687776 604.504356 179.687776 949.495064 61.6874749 949.495064"></polyline>
        </g>
    </g>
</svg>